<svg xmlns="http://www.w3.org/2000/svg" width="36" height="36" viewBox="0 0 36 36">
  <metadata><?xpacket begin="﻿" id="W5M0MpCehiHzreSzNTczkc9d"?>
<x:xmpmeta xmlns:x="adobe:ns:meta/" x:xmptk="Adobe XMP Core 5.6-c138 79.159824, 2016/09/14-01:09:01        ">
   <rdf:RDF xmlns:rdf="http://www.w3.org/1999/02/22-rdf-syntax-ns#">
      <rdf:Description rdf:about=""/>
   </rdf:RDF>
</x:xmpmeta>
                                                                                                    
                                                                                                    
                                                                                                    
                                                                                                    
                                                                                                    
                                                                                                    
                                                                                                    
                                                                                                    
                                                                                                    
                                                                                                    
                                                                                                    
                                                                                                    
                                                                                                    
                                                                                                    
                                                                                                    
                                                                                                    
                                                                                                    
                                                                                                    
                                                                                                    
                                                                                                    
                           
<?xpacket end="w"?></metadata>
<defs>
    <style>
      .cls-1 {
        fill: #ede3dd;
        fill-rule: evenodd;
      }
    </style>
  </defs>
  <path id="_" data-name="+" class="cls-1" d="M1064,746h30a3,3,0,0,1,3,3v30a3,3,0,0,1-3,3h-30a3,3,0,0,1-3-3V749A3,3,0,0,1,1064,746Zm7,16h16a2,2,0,0,1,0,4h-16A2,2,0,0,1,1071,762Zm10-6v16a2,2,0,0,1-4,0V756A2,2,0,0,1,1081,756Z" transform="translate(-1061 -746)"/>
</svg>
