<svg xmlns="http://www.w3.org/2000/svg" width="15" height="15" viewBox="0 0 15 15">
  <metadata><?xpacket begin="﻿" id="W5M0MpCehiHzreSzNTczkc9d"?>
<x:xmpmeta xmlns:x="adobe:ns:meta/" x:xmptk="Adobe XMP Core 5.6-c138 79.159824, 2016/09/14-01:09:01        ">
   <rdf:RDF xmlns:rdf="http://www.w3.org/1999/02/22-rdf-syntax-ns#">
      <rdf:Description rdf:about=""/>
   </rdf:RDF>
</x:xmpmeta>
                                                                                                    
                                                                                                    
                                                                                                    
                                                                                                    
                                                                                                    
                                                                                                    
                                                                                                    
                                                                                                    
                                                                                                    
                                                                                                    
                                                                                                    
                                                                                                    
                                                                                                    
                                                                                                    
                                                                                                    
                                                                                                    
                                                                                                    
                                                                                                    
                                                                                                    
                                                                                                    
                           
<?xpacket end="w"?></metadata>
<defs>
    <style>
      .cls-1 {
        fill: #8e8071;
        fill-rule: evenodd;
        opacity: 0.5;
      }
    </style>
  </defs>
  <path id="spanner" class="cls-1" d="M354.711,1066.55a0.439,0.439,0,0,0,.633,0l2.477-1.95a3.729,3.729,0,0,1-4.523,4.76l-2.939,2.94a3.728,3.728,0,0,1-4.755,4.52l1.951-2.48a0.445,0.445,0,0,0,0-.63l-1.266-1.26a0.439,0.439,0,0,0-.633,0l-2.477,1.95a3.729,3.729,0,0,1,4.524-4.76l2.938-2.94a3.728,3.728,0,0,1,4.755-4.52l-1.95,2.48a0.444,0.444,0,0,0,0,.63Z" transform="translate(-343 -1062)"/>
</svg>
